<svg xmlns="http://www.w3.org/2000/svg" width="134.7" height="50" viewBox="0 0 134.7 50">
  <title>logo-fifty-five</title>
      <path class="93cc897e-6d55-4153-98ca-8b63baa6d939" d="M12.27583,1.19161c7.29576,0,9.39008-.20472,11.07871-0.20472a1.54471,1.54471,0,0,1,1.82323,1.68723,1.55257,1.55257,0,0,1-1.82323,1.82371c-0.609,0-6.28294-.33557-10.673-0.33557-2.63364,0-5,.06824-7.228.26733a0.98321,0.98321,0,0,0-.87725,1.15022C4.4417,7.60685,4.373,13.82295,4.373,15.30545c0,1.41754-.06588,2.77109,0,3.98579C4.4417,20.77751,4.4417,21.113,4.982,21.113a1.48841,1.48841,0,0,0,.87726-0.46824A12.01922,12.01922,0,0,1,13.8967,17.805c5.54126,0,11.55124,3.71658,11.55124,12.76685a17.95119,17.95119,0,0,1-5.80858,13.71331c-3.446,3.173-7.83509,4.99716-16.48247,4.99716-1.48535,0-2.49721-.1346-2.49721-1.75735,0-1.55258.80858-1.82227,1.68771-1.82227,1.41754,0,2.70048.13272,3.782,0.13272,5.54029,0,9.45692-1.68535,12.29389-4.72424,2.09432-2.23171,3.782-5.13364,3.782-10.2014,0-5.60762-2.16116-9.99765-8.91567-9.99765-4.12,0-6.07967,1.89051-7.901,4.05215a1.73938,1.73938,0,0,1-1.41846.87725c-0.33793,0-2.56781-.47113-2.56781-1.756,0-.94313.13369-2.97253,0.13369-3.44077,0-1.01566.06685-4.66352,0-8.37822C1.46825,7.60685,1.2,5.377,1.2,4.42959a4.02427,4.02427,0,0,1,.53937-2.22612,1.81091,1.81091,0,0,1,1.82511-1.0801C4.84643,1.12337,7.34643,1.19161,12.27583,1.19161Z"/>
      <path class="93cc897e-6d55-4153-98ca-8b63baa6d939" d="M46.05127,1.19161c7.29576,0,9.38911-.20516,11.07779-0.20516a1.54462,1.54462,0,0,1,1.82415,1.68766,1.55259,1.55259,0,0,1-1.82415,1.82371c-0.609,0-6.28015-.33557-10.67022-0.33557-2.63648,0-5.00092.06824-7.22984,0.26733a0.98152,0.98152,0,0,0-.87634,1.15022c-0.13552,2.027-.2052,8.24314-0.2052,9.72565,0,1.41754-.0668,2.77109,0,3.98579,0.06968,1.48627.06968,1.82178,0.609,1.82178a1.48614,1.48614,0,0,0,.87913-0.46824A12.02435,12.02435,0,0,1,47.675,17.805c5.53745,0,11.54839,3.71658,11.54839,12.76685a17.95168,17.95168,0,0,1-5.8095,13.71331c-3.446,3.173-7.83417,4.99716-16.4816,4.99716-1.48622,0-2.49716-.1346-2.49716-1.75735,0-1.55258.81234-1.82227,1.68863-1.82227,1.41851,0,2.70145.13272,3.78294,0.13272,5.53653,0,9.45408-1.68535,12.291-4.72424,2.09528-2.23171,3.782-5.13412,3.782-10.20189,0-5.60714-2.15832-9.99716-8.91379-9.99716-4.12087,0-6.0815,1.89051-7.90285,4.05215a1.737,1.737,0,0,1-1.41851.87725c-0.33884,0-2.56776-.47113-2.56776-1.756,0-.94313.13551-2.97253,0.13551-3.44077,0-1.01566.06776-4.66352,0-8.37822-0.06492-4.65971-.33792-6.8896-0.33792-7.837a4.01145,4.01145,0,0,1,.54125-2.22612,1.80558,1.80558,0,0,1,1.82323-1.0801C38.62187,1.12337,41.12187,1.19161,46.05127,1.19161Z"/>
  
      <path class="93cc897e-6d55-4153-98ca-8b63baa6d939" d="M74.58853,5.85409H72.40419v3.704q0,0.36414.01584,0.67279a1.38908,1.38908,0,0,0,.12664.53823,0.84691,0.84691,0,0,0,.3324.36389,1.22506,1.22506,0,0,0,.63313.13456,2.54425,2.54425,0,0,0,.554-0.06335,2.3102,2.3102,0,0,0,.53817-0.1898l0.04751,1.12385a2.83152,2.83152,0,0,1-.7044.20576,4.59413,4.59413,0,0,1-.736.06335A2.675,2.675,0,0,1,72.151,12.233a1.43523,1.43523,0,0,1-.61735-0.49059,1.82416,1.82416,0,0,1-.29281-0.78352,6.9018,6.9018,0,0,1-.07121-1.03667V5.85409H69.555V4.80956h1.61456V2.70428h1.23458V4.80956h2.18434V5.85409Z"/>
      <path class="93cc897e-6d55-4153-98ca-8b63baa6d939" d="M76.10794,0.25083h1.23465V5.83838h0.03168A1.96048,1.96048,0,0,1,77.7225,5.403a2.60343,2.60343,0,0,1,.53025-0.38771,3.24016,3.24016,0,0,1,.68856-0.28483,2.87386,2.87386,0,0,1,.80722-0.111,3.25306,3.25306,0,0,1,1.2584.22173,2.36372,2.36372,0,0,1,.87849.61729,2.50264,2.50264,0,0,1,.51441.95761,4.31119,4.31119,0,0,1,.16623,1.22673v4.57444H81.33141V7.76957a2.37052,2.37052,0,0,0-.41153-1.47228,1.51217,1.51217,0,0,0-1.28216-.538,2.4071,2.4071,0,0,0-1.03674.20576,1.83393,1.83393,0,0,0-.71232.58562,2.62,2.62,0,0,0-.41153.90212,4.62978,4.62978,0,0,0-.13456,1.15552v3.609H76.10794V0.25083Z"/>
      <path class="93cc897e-6d55-4153-98ca-8b63baa6d939" d="M91.525,10.872A3.75982,3.75982,0,0,1,90.06877,12.067a4.61719,4.61719,0,0,1-1.8361.34032,3.82762,3.82762,0,0,1-1.567-.30865,3.53322,3.53322,0,0,1-1.17921-.83116,3.64027,3.64027,0,0,1-.74393-1.23458,4.37892,4.37892,0,0,1-.2612-1.51966,4.24492,4.24492,0,0,1,.285-1.5749,3.65038,3.65038,0,0,1,.79138-1.23458,3.55418,3.55418,0,0,1,1.203-.79924,3.97292,3.97292,0,0,1,1.5196-.28508,3.7836,3.7836,0,0,1,1.42457.26126,3.08861,3.08861,0,0,1,1.11593.7597,3.41757,3.41757,0,0,1,.72017,1.21887,4.92648,4.92648,0,0,1,.25328,1.63825V8.89341H85.81089a2.59376,2.59376,0,0,0,.22952.91,2.638,2.638,0,0,0,.51441.76,2.37526,2.37526,0,0,0,.744.51441,2.27544,2.27544,0,0,0,.93386.1898,2.9546,2.9546,0,0,0,1.36128-.28483,3.09667,3.09667,0,0,0,.99721-0.839ZM90.46452,7.84863A2.12983,2.12983,0,0,0,89.84717,6.329a2.21719,2.21719,0,0,0-1.6145-.56965,2.28094,2.28094,0,0,0-2.42178,2.08931h4.65363Z"/>
      <path class="93cc897e-6d55-4153-98ca-8b63baa6d939" d="M76.69375,27.77H76.66213a2.825,2.825,0,0,1-1.10009,1.0686,3.42912,3.42912,0,0,1-1.74906.43535,3.646,3.646,0,0,1-1.45625-.29293,3.54947,3.54947,0,0,1-1.17921-.8152,3.82156,3.82156,0,0,1-.78352-1.23458,4.36468,4.36468,0,0,1,0-3.10242,3.75234,3.75234,0,0,1,.79138-1.23458,3.54415,3.54415,0,0,1,1.22673-.8152,4.18744,4.18744,0,0,1,1.5908-.29293,3.29669,3.29669,0,0,1,1.47994.33247,3.646,3.646,0,0,1,1.17928.93379h0.03161V17.11737h1.23465V29.08385H76.69375V27.77Zm0-2.3901a3.14145,3.14145,0,0,0-.182-1.08406,2.50094,2.50094,0,0,0-1.36128-1.45631,2.85843,2.85843,0,0,0-2.1685,0,2.50145,2.50145,0,0,0-1.36128,1.45631,3.32017,3.32017,0,0,0,0,2.16837A2.50145,2.50145,0,0,0,72.982,27.92048a2.85843,2.85843,0,0,0,2.1685,0,2.50094,2.50094,0,0,0,1.36128-1.45631A3.14187,3.14187,0,0,0,76.69375,25.37985Z"/>
      <path class="93cc897e-6d55-4153-98ca-8b63baa6d939" d="M80.1126,22.62586A3.48366,3.48366,0,0,1,81.466,21.763a4.74568,4.74568,0,0,1,1.59074-.277,3.13511,3.13511,0,0,1,2.37433.77567,3.34183,3.34183,0,0,1,.72809,2.35843v3.18148q0,0.317.03168,0.65708,0.03155,0.34057.07913,0.62515H85.0828a2.58013,2.58013,0,0,1-.07121-0.5618q-0.00817-.309-0.00792-0.54608H84.972a2.90156,2.90156,0,0,1-.97345.93379,2.80618,2.80618,0,0,1-1.46417.36414,3.87137,3.87137,0,0,1-1.06841-.14267,2.6633,2.6633,0,0,1-.87057-0.41938,2.06891,2.06891,0,0,1-.5936-0.6885,1.97036,1.97036,0,0,1-.2216-0.94976,2.062,2.062,0,0,1,.47488-1.44035,2.88319,2.88319,0,0,1,1.17921-.77567,5.80386,5.80386,0,0,1,1.51953-.3165q0.815-.0631,1.49584-0.06335h0.47482V24.256a1.5129,1.5129,0,0,0-.48273-1.21862,2.02392,2.02392,0,0,0-1.35337-.41153,3.61815,3.61815,0,0,0-1.17921.19765,2.83677,2.83677,0,0,0-1.021.60944Zm3.5773,2.89666a4.43325,4.43325,0,0,0-1.88361.33221,1.129,1.129,0,0,0-.69648,1.09217,1.0753,1.0753,0,0,0,.467.98929,2.14888,2.14888,0,0,0,1.16338.29293,2.27259,2.27259,0,0,0,.94184-0.18194,1.98143,1.98143,0,0,0,.67272-0.483A2.081,2.081,0,0,0,84.76624,26.86a2.87475,2.87475,0,0,0,.15825-0.86259V25.52252H83.6899Z"/>
      <path class="93cc897e-6d55-4153-98ca-8b63baa6d939" d="M92.47471,22.72063H90.29037v3.704q0,0.36414.01584,0.67279a1.38908,1.38908,0,0,0,.12664.53823,0.84691,0.84691,0,0,0,.3324.36389,1.22506,1.22506,0,0,0,.63313.13456,2.54425,2.54425,0,0,0,.554-0.06335,2.3102,2.3102,0,0,0,.53817-0.1898l0.04751,1.12385a2.83151,2.83151,0,0,1-.7044.20576,4.59413,4.59413,0,0,1-.736.06335,2.675,2.675,0,0,1-1.06049-.17434A1.43523,1.43523,0,0,1,89.4198,28.609a1.82416,1.82416,0,0,1-.29281-0.78352,6.9018,6.9018,0,0,1-.07121-1.03667V22.72063H87.44123V21.6761h1.61456V19.57083h1.23458V21.6761h2.18434v1.04453Z"/>
      <path class="93cc897e-6d55-4153-98ca-8b63baa6d939" d="M93.89916,22.62586a3.48366,3.48366,0,0,1,1.35337-.86284,4.74568,4.74568,0,0,1,1.59074-.277,3.13511,3.13511,0,0,1,2.37433.77567,3.34183,3.34183,0,0,1,.72809,2.35843v3.18148q0,0.317.03168,0.65708,0.03155,0.34057.07913,0.62515H98.86935a2.58013,2.58013,0,0,1-.07121-0.5618Q98.79,28.213,98.79023,27.976H98.75855a2.90156,2.90156,0,0,1-.97345.93379,2.80618,2.80618,0,0,1-1.46417.36414,3.87137,3.87137,0,0,1-1.06841-.14267,2.6633,2.6633,0,0,1-.87057-0.41938,2.06891,2.06891,0,0,1-.5936-0.6885,1.97036,1.97036,0,0,1-.2216-0.94976,2.062,2.062,0,0,1,.47488-1.44035,2.88319,2.88319,0,0,1,1.17921-.77567,5.80386,5.80386,0,0,1,1.51953-.3165q0.815-.0631,1.49584-0.06335H98.711V24.256a1.5129,1.5129,0,0,0-.48273-1.21862,2.02392,2.02392,0,0,0-1.35337-.41153,3.61815,3.61815,0,0,0-1.17921.19765,2.83677,2.83677,0,0,0-1.021.60944Zm3.5773,2.89666a4.43325,4.43325,0,0,0-1.88361.33221,1.129,1.129,0,0,0-.69648,1.09217,1.0753,1.0753,0,0,0,.467.98929,2.14888,2.14888,0,0,0,1.16338.29293,2.27259,2.27259,0,0,0,.94184-0.18194,1.98143,1.98143,0,0,0,.67272-0.483A2.081,2.081,0,0,0,98.55279,26.86,2.87475,2.87475,0,0,0,98.711,25.9974V25.52252H97.47646Z"/>
      <path class="93cc897e-6d55-4153-98ca-8b63baa6d939" d="M75.80734,40.39452a2.50293,2.50293,0,0,0-.85473-0.6885,2.37228,2.37228,0,0,0-1.013-.21362,2.63751,2.63751,0,0,0-1.09217.21362,2.10441,2.10441,0,0,0-.78352.59347,2.64624,2.64624,0,0,0-.4669.87855,3.50912,3.50912,0,0,0-.15831,1.06835,3.09116,3.09116,0,0,0,.182,1.0686,2.83139,2.83139,0,0,0,.50655.8783,2.28215,2.28215,0,0,0,.78352.59372,2.4093,2.4093,0,0,0,1.02882.21362,2.18788,2.18788,0,0,0,1.88361-.91808l0.91808,0.87069a3.22056,3.22056,0,0,1-1.26632.90212,4.36228,4.36228,0,0,1-3.10236,0,3.38719,3.38719,0,0,1-1.21089-.80709,3.717,3.717,0,0,1-.77561-1.23484,4.28593,4.28593,0,0,1-.277-1.567,4.24144,4.24144,0,0,1,.277-1.55108,3.64711,3.64711,0,0,1,.78352-1.23458,3.5792,3.5792,0,0,1,1.21089-.8152,4.02461,4.02461,0,0,1,1.55907-.29293,4.27928,4.27928,0,0,1,1.55913.28508,3.41074,3.41074,0,0,1,1.29.88641Z"/>
      <path class="93cc897e-6d55-4153-98ca-8b63baa6d939" d="M77.73834,42.2464a4.03,4.03,0,0,1,.30073-1.58276,3.74381,3.74381,0,0,1,.82312-1.22673,3.65545,3.65545,0,0,1,1.25048-.79924,4.53681,4.53681,0,0,1,3.16571,0,3.6576,3.6576,0,0,1,1.25042.79924,3.74676,3.74676,0,0,1,.82312,1.22673,4.31615,4.31615,0,0,1,0,3.16577,3.74411,3.74411,0,0,1-.82312,1.22673,3.6576,3.6576,0,0,1-1.25042.79924,4.53681,4.53681,0,0,1-3.16571,0,3.65545,3.65545,0,0,1-1.25048-.79924,3.74116,3.74116,0,0,1-.82312-1.22673A4.02948,4.02948,0,0,1,77.73834,42.2464Zm1.32961,0a3.1374,3.1374,0,0,0,.182,1.08431A2.50145,2.50145,0,0,0,80.61124,44.787a2.85843,2.85843,0,0,0,2.1685,0A2.50094,2.50094,0,0,0,84.141,43.33071a3.32017,3.32017,0,0,0,0-2.16837A2.50094,2.50094,0,0,0,82.77974,39.706a2.85843,2.85843,0,0,0-2.1685,0A2.50145,2.50145,0,0,0,79.25,41.16234,3.137,3.137,0,0,0,79.06795,42.2464Z"/>
      <path class="93cc897e-6d55-4153-98ca-8b63baa6d939" d="M87.5678,40.2995q0-.5063-0.03161-0.9495-0.03193-.4432-0.03168-0.80734h1.17129q0,0.30066.01584,0.60133,0.01558,0.301.01584,0.61754h0.03168a2.13635,2.13635,0,0,1,.3561-0.52252,2.57207,2.57207,0,0,1,.54608-0.45106,2.919,2.919,0,0,1,.71232-0.3165,2.95432,2.95432,0,0,1,.85473-0.11885,2.90035,2.90035,0,0,1,1.00513.15052,2.456,2.456,0,0,1,.67272.36389,1.79436,1.79436,0,0,1,.41945.45917q0.15024,0.24555.24536,0.43535a3.42373,3.42373,0,0,1,.94969-1.03693,2.40052,2.40052,0,0,1,1.393-.372,3.61488,3.61488,0,0,1,1.32961.21387,2.11212,2.11212,0,0,1,.87057.61729,2.4367,2.4367,0,0,1,.47482.98118,5.3971,5.3971,0,0,1,.14248,1.29008V45.9504H97.47652v-4.432a3.50285,3.50285,0,0,0-.07913-0.744,1.72651,1.72651,0,0,0-.28489-0.649,1.49518,1.49518,0,0,0-.554-0.45891,1.98011,1.98011,0,0,0-.88641-0.17409,1.78147,1.78147,0,0,0-.744.15812,1.87082,1.87082,0,0,0-.60937.4432,2.08083,2.08083,0,0,0-.41153.68875,2.53954,2.53954,0,0,0-.1504.89426V45.9504H92.52216V41.75581a3.38575,3.38575,0,0,0-.3324-1.749,1.20188,1.20188,0,0,0-1.09217-.51441,2.4071,2.4071,0,0,0-1.03674.20576,1.83393,1.83393,0,0,0-.71232.58562,2.62,2.62,0,0,0-.41153.90212,4.62978,4.62978,0,0,0-.13456,1.15552v3.609H87.5678V40.2995Z"/>
      <path class="93cc897e-6d55-4153-98ca-8b63baa6d939" d="M100.99034,38.54265H102.225v1.07621h0.03161a3.64064,3.64064,0,0,1,1.17928-.93379,3.29592,3.29592,0,0,1,1.47994-.33247,4.18929,4.18929,0,0,1,1.5908.29293,3.5489,3.5489,0,0,1,1.22673.8152,3.75539,3.75539,0,0,1,.79138,1.23458,4.36468,4.36468,0,0,1,0,3.10242,3.82247,3.82247,0,0,1-.78346,1.23458,3.553,3.553,0,0,1-1.17928.8152,3.64778,3.64778,0,0,1-1.45625.29293,3.42847,3.42847,0,0,1-1.74906-.43535,2.82156,2.82156,0,0,1-1.10009-1.0686H102.225v4.92287h-1.23465V38.54265ZM102.225,42.2464a3.13591,3.13591,0,0,0,.182,1.08431,2.50094,2.50094,0,0,0,1.36128,1.45631,2.85843,2.85843,0,0,0,2.1685,0,2.50145,2.50145,0,0,0,1.36128-1.45631,3.32017,3.32017,0,0,0,0-2.16837,2.50145,2.50145,0,0,0-1.36128-1.45631,2.85843,2.85843,0,0,0-2.1685,0,2.50094,2.50094,0,0,0-1.36128,1.45631A3.13548,3.13548,0,0,0,102.225,42.2464Z"/>
      <path class="93cc897e-6d55-4153-98ca-8b63baa6d939" d="M110.62982,39.49241a3.48366,3.48366,0,0,1,1.35337-.86284,4.74568,4.74568,0,0,1,1.59074-.277,3.13511,3.13511,0,0,1,2.37433.77567,3.34183,3.34183,0,0,1,.72809,2.35843v3.18148q0,0.317.03168,0.65708,0.03155,0.34057.07913,0.62515H115.6a2.58013,2.58013,0,0,1-.07121-0.5618q-0.00817-.309-0.00792-0.54608h-0.03168a2.90156,2.90156,0,0,1-.97345.93379,2.80618,2.80618,0,0,1-1.46417.36414,3.87137,3.87137,0,0,1-1.06841-.14267,2.6633,2.6633,0,0,1-.87057-0.41938,2.06891,2.06891,0,0,1-.5936-0.6885,1.97036,1.97036,0,0,1-.2216-0.94976,2.062,2.062,0,0,1,.47488-1.44035,2.88319,2.88319,0,0,1,1.17921-.77567,5.80386,5.80386,0,0,1,1.51953-.3165q0.815-.0631,1.49584-0.06335h0.47482V41.12255a1.5129,1.5129,0,0,0-.48273-1.21862,2.02392,2.02392,0,0,0-1.35337-.41153,3.61815,3.61815,0,0,0-1.17921.19765,2.83677,2.83677,0,0,0-1.021.60944Zm3.5773,2.89666a4.43325,4.43325,0,0,0-1.88361.33221,1.129,1.129,0,0,0-.69648,1.09217,1.0753,1.0753,0,0,0,.467.98929,2.14888,2.14888,0,0,0,1.16338.29293,2.27259,2.27259,0,0,0,.94184-0.18194,1.98143,1.98143,0,0,0,.67272-0.483,2.081,2.081,0,0,0,.41153-0.70421,2.87474,2.87474,0,0,0,.15825-0.86259V42.38906h-1.23458Z"/>
      <path class="93cc897e-6d55-4153-98ca-8b63baa6d939" d="M118.93981,40.2995q0-.5063-0.03161-0.9495-0.03193-.4432-0.03168-0.80734h1.1713q0,0.30066.01584,0.60133,0.01558,0.301.01584,0.61754h0.03168a2.13635,2.13635,0,0,1,.3561-0.52252,2.57207,2.57207,0,0,1,.54608-0.45106,2.919,2.919,0,0,1,.71232-0.3165,2.95432,2.95432,0,0,1,.85473-0.11885,3.25306,3.25306,0,0,1,1.2584.22173,2.36372,2.36372,0,0,1,.87849.61729,2.50264,2.50264,0,0,1,.51441.95761,4.31119,4.31119,0,0,1,.16623,1.22673V45.9504h-1.23465V41.50266a2.37052,2.37052,0,0,0-.41153-1.47228,1.51217,1.51217,0,0,0-1.28216-.538,2.4071,2.4071,0,0,0-1.03674.20576,1.83393,1.83393,0,0,0-.71232.58562,2.62,2.62,0,0,0-.41153.90212,4.62978,4.62978,0,0,0-.13456,1.15552v3.609h-1.23465V40.2995Z"/>
      <path class="93cc897e-6d55-4153-98ca-8b63baa6d939" d="M130.46309,47.64415q-0.19.47475-.38783,0.86259a2.61428,2.61428,0,0,1-.47488.66468,1.89874,1.89874,0,0,1-.6648.42749,2.61539,2.61539,0,0,1-.94177.15027,5.24848,5.24848,0,0,1-.56192-0.03168,1.59635,1.59635,0,0,1-.54608-0.15812l0.15831-1.07646a1.455,1.455,0,0,0,.39569.10288,4.15412,4.15412,0,0,0,.47488.02382,1.10485,1.10485,0,0,0,.88641-0.33247,2.91313,2.91313,0,0,0,.49065-0.88641l0.50655-1.393-3.07075-7.45514h1.44035l2.2952,5.809h0.03161l2.20018-5.809h1.34545Z"/>
    
</svg>
